<mxfile host="app.diagrams.net" agent="Mozilla/5.0 (Windows NT 10.0; Win64; x64) AppleWebKit/537.36 (KHTML, like Gecko) Chrome/134.0.0.0 Safari/537.36" version="26.1.2">
  <diagram id="6a731a19-8d31-9384-78a2-239565b7b9f0" name="Page-1">
    <mxGraphModel dx="1195" dy="1477" grid="1" gridSize="10" guides="1" tooltips="1" connect="1" arrows="1" fold="1" page="1" pageScale="1" pageWidth="1169" pageHeight="827" background="none" math="0" shadow="0">
      <root>
        <mxCell id="0" />
        <mxCell id="1" parent="0" />
        <mxCell id="TQHPRxnK35G2Zz5guyPs-60" style="edgeStyle=orthogonalEdgeStyle;rounded=0;orthogonalLoop=1;jettySize=auto;html=1;exitX=0.5;exitY=1;exitDx=0;exitDy=0;" edge="1" parent="1" source="TQHPRxnK35G2Zz5guyPs-55">
          <mxGeometry relative="1" as="geometry">
            <mxPoint x="647.5" y="-347" as="targetPoint" />
          </mxGeometry>
        </mxCell>
        <mxCell id="TQHPRxnK35G2Zz5guyPs-55" value="객체인식 기반 로봇팔 실험 도우미" style="rounded=1;whiteSpace=wrap;html=1;" vertex="1" parent="1">
          <mxGeometry x="552.5" y="-437" width="190" height="40" as="geometry" />
        </mxCell>
        <mxCell id="TQHPRxnK35G2Zz5guyPs-61" value="사용자 인터페이스(웹)" style="rounded=1;whiteSpace=wrap;html=1;" vertex="1" parent="1">
          <mxGeometry x="587.5" y="-347" width="120" height="50" as="geometry" />
        </mxCell>
        <mxCell id="TQHPRxnK35G2Zz5guyPs-74" style="edgeStyle=orthogonalEdgeStyle;rounded=0;orthogonalLoop=1;jettySize=auto;html=1;exitX=0.76;exitY=0.998;exitDx=0;exitDy=0;entryX=0.462;entryY=0.062;entryDx=0;entryDy=0;exitPerimeter=0;entryPerimeter=0;" edge="1" parent="1" target="TQHPRxnK35G2Zz5guyPs-76">
          <mxGeometry relative="1" as="geometry">
            <mxPoint x="782.5" y="110.46" as="targetPoint" />
            <mxPoint x="784" y="1.9101387138675818e-13" as="sourcePoint" />
            <Array as="points">
              <mxPoint x="783" />
              <mxPoint x="783" y="56" />
            </Array>
          </mxGeometry>
        </mxCell>
        <mxCell id="TQHPRxnK35G2Zz5guyPs-80" style="edgeStyle=orthogonalEdgeStyle;rounded=0;orthogonalLoop=1;jettySize=auto;html=1;entryX=0.5;entryY=0;entryDx=0;entryDy=0;exitX=0.114;exitY=1.015;exitDx=0;exitDy=0;exitPerimeter=0;" edge="1" parent="1" source="TQHPRxnK35G2Zz5guyPs-62" target="TQHPRxnK35G2Zz5guyPs-77">
          <mxGeometry relative="1" as="geometry" />
        </mxCell>
        <mxCell id="TQHPRxnK35G2Zz5guyPs-62" value="&lt;font style=&quot;font-size: 18px;&quot;&gt;Raspberry Pi 5&lt;/font&gt;" style="rounded=1;whiteSpace=wrap;html=1;verticalAlign=top;" vertex="1" parent="1">
          <mxGeometry x="460" y="-230" width="375" height="230" as="geometry" />
        </mxCell>
        <mxCell id="TQHPRxnK35G2Zz5guyPs-63" style="edgeStyle=orthogonalEdgeStyle;rounded=0;orthogonalLoop=1;jettySize=auto;html=1;entryX=0.502;entryY=0.017;entryDx=0;entryDy=0;entryPerimeter=0;" edge="1" parent="1" source="TQHPRxnK35G2Zz5guyPs-61" target="TQHPRxnK35G2Zz5guyPs-62">
          <mxGeometry relative="1" as="geometry" />
        </mxCell>
        <mxCell id="TQHPRxnK35G2Zz5guyPs-64" value="카메라모듈" style="triangle;whiteSpace=wrap;html=1;align=left;" vertex="1" parent="1">
          <mxGeometry x="492.5" y="-187" width="90" height="80" as="geometry" />
        </mxCell>
        <mxCell id="TQHPRxnK35G2Zz5guyPs-65" value="영상처리(AI)" style="triangle;whiteSpace=wrap;html=1;align=left;" vertex="1" parent="1">
          <mxGeometry x="602.5" y="-187" width="90" height="80" as="geometry" />
        </mxCell>
        <mxCell id="TQHPRxnK35G2Zz5guyPs-66" value="데이터처리" style="triangle;whiteSpace=wrap;html=1;align=left;" vertex="1" parent="1">
          <mxGeometry x="707.5" y="-187" width="90" height="80" as="geometry" />
        </mxCell>
        <mxCell id="TQHPRxnK35G2Zz5guyPs-72" style="edgeStyle=orthogonalEdgeStyle;rounded=0;orthogonalLoop=1;jettySize=auto;html=1;exitX=0.5;exitY=1;exitDx=0;exitDy=0;" edge="1" parent="1" source="TQHPRxnK35G2Zz5guyPs-67" target="TQHPRxnK35G2Zz5guyPs-75">
          <mxGeometry relative="1" as="geometry">
            <mxPoint x="643" y="120" as="targetPoint" />
          </mxGeometry>
        </mxCell>
        <mxCell id="TQHPRxnK35G2Zz5guyPs-67" value="&lt;font style=&quot;font-size: 15px;&quot;&gt;제어 로직 및 명령 관리&lt;/font&gt;" style="rounded=1;whiteSpace=wrap;html=1;" vertex="1" parent="1">
          <mxGeometry x="502.5" y="-67" width="280" height="40" as="geometry" />
        </mxCell>
        <mxCell id="TQHPRxnK35G2Zz5guyPs-71" value="HTTP" style="text;html=1;align=center;verticalAlign=middle;whiteSpace=wrap;rounded=0;" vertex="1" parent="1">
          <mxGeometry x="647.5042857142857" y="-280" width="60" height="30" as="geometry" />
        </mxCell>
        <mxCell id="TQHPRxnK35G2Zz5guyPs-75" value="서보모터" style="rounded=1;whiteSpace=wrap;html=1;" vertex="1" parent="1">
          <mxGeometry x="599" y="110" width="87" height="30" as="geometry" />
        </mxCell>
        <mxCell id="TQHPRxnK35G2Zz5guyPs-76" value="정량펌프" style="rounded=1;whiteSpace=wrap;html=1;" vertex="1" parent="1">
          <mxGeometry x="742.5" y="120" width="87" height="30" as="geometry" />
        </mxCell>
        <mxCell id="TQHPRxnK35G2Zz5guyPs-84" style="edgeStyle=orthogonalEdgeStyle;rounded=0;orthogonalLoop=1;jettySize=auto;html=1;exitX=0.5;exitY=1;exitDx=0;exitDy=0;entryX=0.5;entryY=0;entryDx=0;entryDy=0;" edge="1" parent="1" source="TQHPRxnK35G2Zz5guyPs-77" target="TQHPRxnK35G2Zz5guyPs-81">
          <mxGeometry relative="1" as="geometry" />
        </mxCell>
        <mxCell id="TQHPRxnK35G2Zz5guyPs-96" style="edgeStyle=orthogonalEdgeStyle;rounded=0;orthogonalLoop=1;jettySize=auto;html=1;" edge="1" parent="1" source="TQHPRxnK35G2Zz5guyPs-77" target="TQHPRxnK35G2Zz5guyPs-97">
          <mxGeometry relative="1" as="geometry">
            <mxPoint x="400" y="135" as="targetPoint" />
          </mxGeometry>
        </mxCell>
        <mxCell id="TQHPRxnK35G2Zz5guyPs-77" value="Arduino MCU" style="rounded=1;whiteSpace=wrap;html=1;" vertex="1" parent="1">
          <mxGeometry x="460" y="120" width="87" height="30" as="geometry" />
        </mxCell>
        <mxCell id="TQHPRxnK35G2Zz5guyPs-93" style="edgeStyle=orthogonalEdgeStyle;rounded=0;orthogonalLoop=1;jettySize=auto;html=1;entryX=0;entryY=0.5;entryDx=0;entryDy=0;" edge="1" parent="1" source="TQHPRxnK35G2Zz5guyPs-81" target="TQHPRxnK35G2Zz5guyPs-82">
          <mxGeometry relative="1" as="geometry" />
        </mxCell>
        <mxCell id="TQHPRxnK35G2Zz5guyPs-81" value="HX711저울" style="shape=hexagon;perimeter=hexagonPerimeter2;whiteSpace=wrap;html=1;fixedSize=1;" vertex="1" parent="1">
          <mxGeometry x="443.5" y="190" width="120" height="80" as="geometry" />
        </mxCell>
        <mxCell id="TQHPRxnK35G2Zz5guyPs-94" style="edgeStyle=orthogonalEdgeStyle;rounded=0;orthogonalLoop=1;jettySize=auto;html=1;entryX=0;entryY=0.5;entryDx=0;entryDy=0;" edge="1" parent="1" source="TQHPRxnK35G2Zz5guyPs-82" target="TQHPRxnK35G2Zz5guyPs-83">
          <mxGeometry relative="1" as="geometry" />
        </mxCell>
        <mxCell id="TQHPRxnK35G2Zz5guyPs-95" style="edgeStyle=orthogonalEdgeStyle;rounded=0;orthogonalLoop=1;jettySize=auto;html=1;exitX=0;exitY=0.5;exitDx=0;exitDy=0;entryX=1;entryY=0.5;entryDx=0;entryDy=0;" edge="1" parent="1" source="TQHPRxnK35G2Zz5guyPs-82" target="TQHPRxnK35G2Zz5guyPs-81">
          <mxGeometry relative="1" as="geometry" />
        </mxCell>
        <mxCell id="TQHPRxnK35G2Zz5guyPs-82" value="로봇팔그리퍼" style="shape=hexagon;perimeter=hexagonPerimeter2;whiteSpace=wrap;html=1;fixedSize=1;" vertex="1" parent="1">
          <mxGeometry x="587.5" y="190" width="120" height="80" as="geometry" />
        </mxCell>
        <mxCell id="TQHPRxnK35G2Zz5guyPs-83" value="액체 분주" style="shape=hexagon;perimeter=hexagonPerimeter2;whiteSpace=wrap;html=1;fixedSize=1;" vertex="1" parent="1">
          <mxGeometry x="730" y="190" width="120" height="80" as="geometry" />
        </mxCell>
        <mxCell id="TQHPRxnK35G2Zz5guyPs-85" style="edgeStyle=orthogonalEdgeStyle;rounded=0;orthogonalLoop=1;jettySize=auto;html=1;exitX=0.5;exitY=1;exitDx=0;exitDy=0;entryX=0.454;entryY=0.033;entryDx=0;entryDy=0;entryPerimeter=0;" edge="1" parent="1" source="TQHPRxnK35G2Zz5guyPs-75" target="TQHPRxnK35G2Zz5guyPs-82">
          <mxGeometry relative="1" as="geometry" />
        </mxCell>
        <mxCell id="TQHPRxnK35G2Zz5guyPs-86" style="edgeStyle=orthogonalEdgeStyle;rounded=0;orthogonalLoop=1;jettySize=auto;html=1;entryX=0.463;entryY=0.008;entryDx=0;entryDy=0;entryPerimeter=0;" edge="1" parent="1" source="TQHPRxnK35G2Zz5guyPs-76" target="TQHPRxnK35G2Zz5guyPs-83">
          <mxGeometry relative="1" as="geometry" />
        </mxCell>
        <mxCell id="TQHPRxnK35G2Zz5guyPs-87" value="UART" style="text;html=1;align=center;verticalAlign=middle;whiteSpace=wrap;rounded=0;" vertex="1" parent="1">
          <mxGeometry x="502.50428571428574" y="30" width="60" height="30" as="geometry" />
        </mxCell>
        <mxCell id="TQHPRxnK35G2Zz5guyPs-88" value="GPIO" style="text;html=1;align=center;verticalAlign=middle;whiteSpace=wrap;rounded=0;" vertex="1" parent="1">
          <mxGeometry x="640.0042857142857" y="30" width="60" height="30" as="geometry" />
        </mxCell>
        <mxCell id="TQHPRxnK35G2Zz5guyPs-89" value="GPIO" style="text;html=1;align=center;verticalAlign=middle;whiteSpace=wrap;rounded=0;" vertex="1" parent="1">
          <mxGeometry x="782.5042857142857" y="30" width="60" height="30" as="geometry" />
        </mxCell>
        <mxCell id="TQHPRxnK35G2Zz5guyPs-90" value="GPIO" style="text;html=1;align=center;verticalAlign=middle;whiteSpace=wrap;rounded=0;" vertex="1" parent="1">
          <mxGeometry x="502.50428571428574" y="150" width="60" height="30" as="geometry" />
        </mxCell>
        <mxCell id="TQHPRxnK35G2Zz5guyPs-91" value="PWM" style="text;html=1;align=center;verticalAlign=middle;whiteSpace=wrap;rounded=0;" vertex="1" parent="1">
          <mxGeometry x="647.5042857142857" y="150" width="60" height="30" as="geometry" />
        </mxCell>
        <mxCell id="TQHPRxnK35G2Zz5guyPs-92" value="PWM" style="text;html=1;align=center;verticalAlign=middle;whiteSpace=wrap;rounded=0;" vertex="1" parent="1">
          <mxGeometry x="782.5042857142857" y="150" width="60" height="30" as="geometry" />
        </mxCell>
        <mxCell id="TQHPRxnK35G2Zz5guyPs-97" value="UVC LED를 이용한 무균 유지" style="rounded=1;whiteSpace=wrap;html=1;" vertex="1" parent="1">
          <mxGeometry x="300" y="105" width="120" height="60" as="geometry" />
        </mxCell>
      </root>
    </mxGraphModel>
  </diagram>
</mxfile>
